<?xml version="1.0" standalone="no"?><!DOCTYPE svg PUBLIC "-//W3C//DTD SVG 1.1//EN" "http://www.w3.org/Graphics/SVG/1.1/DTD/svg11.dtd"><svg t="1737712624696" class="icon" viewBox="0 0 1085 1024" version="1.1" xmlns="http://www.w3.org/2000/svg" p-id="4517" xmlns:xlink="http://www.w3.org/1999/xlink" width="211.9140625" height="200"><path d="M540.22325107 505.04951533m-532.29086552 0a532.29086403 532.29086403 0 1 0 1064.58172956 0 532.29086403 532.29086403 0 1 0-1064.58172956 0Z" fill="#C1D3F4" p-id="4518"></path><path d="M541.598625 503.173696m-361.39045 0a361.390449 361.390449 0 1 0 722.780899 0 361.390449 361.390449 0 1 0-722.780899 0Z" fill="#FFD7E3" p-id="4519"></path><path d="M907.20460138 933.86804401h-146.07906454a10.43421872 10.43421872 0 0 1-7.22368982-2.94298518 11.23685074 11.23685074 0 0 1-2.67544062-7.49123354c0-2.94298517 9.6315867-305.26778842-87.21936776-535.0881481a9.89913043 9.89913043 0 0 1 18.46054055-7.75877811c88.55708807 208.68437768 89.8948092 476.49599588 89.09217718 532.14516293h135.64484501a10.16667499 10.16667499 0 1 1 0 20.06580542zM643.67368866 933.86804401h-2.40789688a10.16667499 10.16667499 0 0 1-7.49123355-12.03948359c49.49565381-202.26331989 0-511.81181296 0-514.75479812a9.6315867 9.6315867 0 0 1 8.29386639-11.50439529 9.89913043 9.89913043 0 0 1 11.50439447 8.29386639c0 2.94298517 50.29828583 316.50463916 0 522.78112079a9.89913043 9.89913043 0 0 1-9.89913043 7.22368982z" fill="#231815" p-id="4520"></path><path d="M593.37540283 438.37641928a51.3684624 51.3684624 0 1 1 51.10091785-53.50881472 51.3684624 51.3684624 0 0 1-51.10091785 53.50881472z m0-82.67111856A31.30265698 31.30265698 0 1 0 625.21314727 384.86760456a31.30265698 31.30265698 0 0 0-31.83774444-30.50002497zM727.95007209 378.17900219a10.16667499 10.16667499 0 0 1-9.89913044-7.49123355 10.43421872 10.43421872 0 0 1 7.49123355-12.30702731 191.02646832 191.02646832 0 0 0 61.53513739-36.65353821c8.56141013-6.42105781 16.32018823-12.30702731 23.27633432-16.85527651a270.48705881 270.48705881 0 0 1 115.84658414-39.86406711 288.14496735 288.14496735 0 0 0-302.85989154 67.95619436 10.43421872 10.43421872 0 0 1-14.17983591 0 9.89913043 9.89913043 0 0 1 0-14.1798359c1.33772031-1.60526404 143.67116767-157.58345984 368.67573358-56.45179908a9.6315867 9.6315867 0 0 1 5.61842496 11.23685074 10.16667499 10.16667499 0 0 1-9.89913043 7.75877811 282.79408612 282.79408612 0 0 0-151.42994577 39.32897882c-6.68860153 4.54824921-13.91229218 10.16667499-21.93861402 16.32018824a207.34665738 207.34665738 0 0 1-69.2939155 40.13161165z" fill="#227b38" p-id="4521"></path><path d="M612.90611997 331.35878983h-1.8728086a10.16667499 10.16667499 0 0 1-8.02632184-11.77193986A295.90374546 295.90374546 0 0 1 907.47214593 90.56912314a9.89913043 9.89913043 0 0 1 4.28070466 18.99562967 253.63178229 253.63178229 0 0 0-115.57903958 110.22815835 10.43421872 10.43421872 0 0 1-13.64474762 4.54824921 10.16667499 10.16667499 0 0 1-4.54824921-13.37720389A254.96950259 254.96950259 0 0 1 867.60807883 112.24019341a267.54407363 267.54407363 0 0 0-244.80282761 210.022098 9.89913043 9.89913043 0 0 1-9.89913125 9.09649841z" fill="#227b38" p-id="4522"></path><path d="M483.94987649 371.22285693a210.02209799 210.02209799 0 0 1-69.02637093-10.16667499A281.18882126 281.18882126 0 0 0 258.41022229 358.11319678 9.89913043 9.89913043 0 0 1 250.65144418 340.99037653a305.53533216 305.53533216 0 0 1 371.3511742-17.65790937 9.6315867 9.6315867 0 0 1 3.2105289 8.02632267 9.6315867 9.6315867 0 0 1-3.47807263 7.7587781c-17.92545309 15.51755622-79.19304593 32.105289-137.78519816 32.105289zM337.60326822 328.68334921a251.75897369 251.75897369 0 0 1 84.00883887 13.37720307A289.21514393 289.21514393 0 0 0 598.45874033 331.35878983 277.71074863 277.71074863 0 0 0 299.87955427 331.35878983a344.86431098 344.86431098 0 0 1 37.72371395-2.67544062z" fill="#227b38" p-id="4523"></path><path d="M625.21314727 322.79737887a9.89913043 9.89913043 0 0 1-9.63158669-7.22368981 238.11422607 238.11422607 0 0 0-221.25894874-164.80714966 172.56592777 172.56592777 0 0 1 80.26322251 53.50881472c7.75877811 8.82895468 16.32018823 18.46054138 26.75440695 26.75440779a9.89913043 9.89913043 0 1 1-14.44737964 13.91229217c-9.6315867-9.89913043-18.46054138-19.79826169-26.75440777-28.89476011-34.51318588-40.13161084-76.51760532-53.50881473-136.98256531-61.26759283a10.16667499 10.16667499 0 0 1 0-20.06580542C571.70433254 95.11737235 634.30964652 307.81491095 635.11227853 309.95526409a9.89913043 9.89913043 0 0 1-6.95614608 12.30702732z" fill="#227b38" p-id="4524"></path><path d="M666.68247925 395.569367a51.3684624 51.3684624 0 1 1 51.3684624-51.10091783 51.3684624 51.3684624 0 0 1-51.3684624 51.10091784z m0-82.40357483a31.30265698 31.30265698 0 1 0 31.30265615 31.30265699 31.30265698 31.30265698 0 0 0-31.30265615-31.30265699zM568.7613482 732.67490069a9.89913043 9.89913043 0 0 1-10.16667498-9.89913125 211.35981831 211.35981831 0 1 0-422.45209287 0 10.16667499 10.16667499 0 0 1-20.06580542 0 231.42562372 231.42562372 0 1 1 462.58370371 0 9.6315867 9.6315867 0 0 1-9.89913043 9.89913125zM470.03758514 803.30653567a128.68869973 128.68869973 0 0 1-66.08338659-17.12282024 113.43868726 113.43868726 0 0 0-57.25443192-13.91229219 111.83342322 111.83342322 0 0 0-57.25443191 13.91229219 129.49133176 129.49133176 0 0 1-65.54829749 17.12282024A129.49133176 129.49133176 0 0 1 157.27856235 786.18371543a111.56587867 111.56587867 0 0 0-56.98688736-13.91229219 10.16667499 10.16667499 0 0 1-10.16667499-9.36404297 9.89913043 9.89913043 0 0 1 10.16667499-9.89913042 128.68869973 128.68869973 0 0 1 65.81584204 16.0526445 112.36851067 112.36851067 0 0 0 57.7895202 14.1798359 113.17114353 113.17114353 0 0 0 57.2544311-14.1798359 128.95624347 128.95624347 0 0 1 66.0833866-16.0526445 129.75887549 129.75887549 0 0 1 66.08338659 16.0526445 111.56587867 111.56587867 0 0 0 57.25443109 14.1798359 113.17114353 113.17114353 0 0 0 57.25443191-14.1798359 128.95624347 128.95624347 0 0 1 66.08338659-16.0526445 9.89913043 9.89913043 0 0 1 9.89913044 9.89913042 10.16667499 10.16667499 0 0 1-9.89913044 10.166675 111.83342322 111.83342322 0 0 0-57.25443191 13.91229217 129.49133176 129.49133176 0 0 1-66.61847406 16.32018823zM437.93229614 866.4469371a99.25885134 99.25885134 0 0 1-50.56583038-12.57457104 82.93866311 82.93866311 0 0 0-41.73687488-10.16667499A82.13603028 82.13603028 0 0 0 304.16025891 853.06973322a99.25885134 99.25885134 0 0 1-49.76319754 13.37720388 99.25885134 99.25885134 0 0 1-50.56583039-12.57457104 82.93866311 82.93866311 0 0 0-41.73687487-10.16667499 10.16667499 10.16667499 0 1 1 0-20.06580542 99.79393964 99.79393964 0 0 1 50.56582956 12.30702732 80.26322251 80.26322251 0 0 0 41.7368757 10.43421871 80.26322251 80.26322251 0 0 0 41.46933116-10.43421871 101.66674823 101.66674823 0 0 1 50.8333741-12.30702732 99.79393964 99.79393964 0 0 1 50.56583039 12.30702732 80.26322251 80.26322251 0 0 0 41.73687487 10.43421871 80.26322251 80.26322251 0 0 0 41.73687571-10.43421871 99.79393964 99.79393964 0 0 1 50.56583038-12.30702732 10.16667499 10.16667499 0 1 1 0 20.06580542 82.93866311 82.93866311 0 0 0-41.7368757 10.16667499A99.25885134 99.25885134 0 0 1 437.93229614 866.4469371zM413.05069695 927.71452993a80.26322251 80.26322251 0 0 1-37.45617021-8.29386638 56.71934363 56.71934363 0 0 0-28.89476011-6.68860154A58.59215222 58.59215222 0 0 0 317.5374628 919.95575183a77.58778107 77.58778107 0 0 1-37.1886265 8.2938664 80.26322251 80.26322251 0 0 1-37.45617022-8.2938664 56.71934363 56.71934363 0 0 0-28.8947601-6.68860153 10.16667499 10.16667499 0 0 1 0-20.06580542 80.26322251 80.26322251 0 0 1 36.6535382 8.02632184 59.92987253 59.92987253 0 0 0 28.89476011 6.4210578 59.92987253 59.92987253 0 0 0 28.89476009-6.4210578 80.26322251 80.26322251 0 0 1 38.25880225-8.02632184 77.0526936 77.0526936 0 0 1 37.72371479 8.02632184 62.07022485 62.07022485 0 0 0 29.16230383 6.4210578 59.92987253 59.92987253 0 0 0 28.89476009-6.4210578 80.26322251 80.26322251 0 0 1 37.45617024-8.56141013 10.16667499 10.16667499 0 1 1 0 20.06580542 56.71934363 56.71934363 0 0 0-28.8947601 6.68860154 80.26322251 80.26322251 0 0 1-37.99125853 8.29386638z" fill="#a6423f" p-id="4525"></path></svg>